Simulation
nRows=23
nColumns=15
endheader
time  TH_x TH_y TH_z SC_y  SC_z  SC_x  AC_y  AC_z  AC_x  GH_y  GH_z  GH_yy  EL_x  PS_y
7.203000000000001  0.000000  0.000000  0.000000  -43.43497403261844  30.48896414733673  21.904240925085915  46.20317790397915  1.6575966749635118  10.031486288423903  143.1059295155694  26.57887031574228  -72.11969420613921  13.192682958226936  120.000000
7.251020000000001  0.000000  0.000000  0.000000  -45.02986891003722  30.504800706257527  22.163616739906672  45.19420430907767  1.6313567131170277  8.615548635832493  136.05137405577577  28.781437916540824  -64.64561246497101  12.56911618473818  120.000000
7.2990400000000015  0.000000  0.000000  0.000000  -46.224631650694725  30.248472072364326  22.050671145681186  44.52548070099691  1.720341284609927  7.207491071827225  128.68909476330606  31.129101423625116  -57.55229814411232  12.043868775688194  120.000000
7.347060000000001  0.000000  0.000000  0.000000  -46.866541598022884  29.75337885826005  21.591330594010508  44.193634061738884  1.8760361007274977  6.027139167211551  121.23962622897174  33.58051017822898  -51.13529554595824  11.622209919983176  120.000000
7.395080000000001  0.000000  0.000000  0.000000  -46.885642998109034  29.057929884532022  20.86501156510986  44.13807365788912  2.051580761598805  5.316019478356838  113.86504753244961  36.004956580035305  -45.55700269254083  11.31052448203938  120.000000
7.443100000000001  0.000000  0.000000  0.000000  -46.30802402014974  28.251475174928803  20.002541160877318  44.371474074848976  2.2568533643013016  5.249559592110905  106.52160866819281  38.260307078319315  -40.75095651176792  11.100642159242202  120.000000
7.491120000000001  0.000000  0.000000  0.000000  -45.270865507934886  27.472724567879755  19.16592488803991  44.97075555129762  2.552919284097987  5.8374038475489725  99.0679921482612  40.29945288501614  -36.54595242263175  10.951127207126833  120.000000
7.5391400000000015  0.000000  0.000000  0.000000  -44.01610099256518  26.85563819911948  18.476454193881796  45.92717772904024  2.9898105905419143  6.905978138343079  91.58691588388994  42.30608066669675  -32.95652815046796  10.807774353808787  120.000000
7.587160000000001  0.000000  0.000000  0.000000  -42.8092182471137  26.430014659990764  17.955702731979706  47.10950460723776  3.5551880422041267  8.19126810776899  84.41893573934824  44.602117156278105  -30.231254853379795  10.626924213803465  120.000000
7.635180000000001  0.000000  0.000000  0.000000  -41.71547064315586  26.09393273561162  17.57680879199659  48.48531287719498  4.201535877930299  9.55730334410334  77.57991886636371  47.20555811169585  -28.254814413813733  10.434412420258196  120.000000
7.683200000000001  0.000000  0.000000  0.000000  -40.555766025889895  25.64858597348796  17.26758429188697  50.20378246770178  4.878145107987585  11.055067990118358  70.59812883619779  49.74673521511587  -26.34994383430548  10.311590807698975  120.000000
7.731220000000001  0.000000  0.000000  0.000000  -39.19046840462162  24.914486594027846  16.8365578268799  52.363122549628194  5.5318034449959965  12.679052600403006  63.20592590764126  51.96180409287207  -23.984207003749113  10.274110750869742  120.000000
7.7792400000000015  0.000000  0.000000  0.000000  -37.651300918971046  23.836189309226157  16.08166559985872  54.86634745652618  6.191134844205857  14.262833367259496  55.63501760918804  53.92435107661726  -21.117630022893092  10.277027404718854  120.000000
7.827260000000001  0.000000  0.000000  0.000000  -36.04331532550286  22.44985756743749  14.94339381931806  57.488764082475456  6.965274359884941  15.636316179046652  48.398782041765266  55.8567642561375  -18.063936230891535  10.292960303019381  120.000000
7.875280000000001  0.000000  0.000000  0.000000  -34.493902360187384  20.848423098476708  13.496108346163714  59.99331507336146  7.947609574814029  16.690571055804213  42.03623039763654  57.907062942550546  -15.238722381254146  10.323397149545682  120.000000
7.923300000000001  0.000000  0.000000  0.000000  -33.14394045931317  19.155475079919896  11.866739629509786  62.171284440596004  9.16690310346696  17.379643421989933  36.89467032629228  60.08197322238191  -12.937345113384294  10.37151543815322  120.000000
7.971320000000001  0.000000  0.000000  0.000000  -32.11679255281703  17.4878183362199  10.152781802965501  63.87148258361843  10.592416455144166  17.725863461231246  33.07324846681256  62.31590160236671  -11.284320578242232  10.426870643970954  120.000000
8.019340000000001  0.000000  0.000000  0.000000  -31.47340204159061  15.947491168860491  8.386968297433672  65.03144730985781  12.179786529576663  17.798204245667392  30.486391960816693  64.53025106582898  -10.268684270693912  10.472838613319357  120.000000
8.06736  0.000000  0.000000  0.000000  -31.19267809500141  14.593035237498226  6.558671267663573  65.66761193109929  13.894667013724618  17.702591538978428  28.94545241592653  66.65794320173765  -9.79461003616081  10.496136052229312  120.000000
8.115380000000002  0.000000  0.000000  0.000000  -31.189285501534115  13.435640747625802  4.656462928484618  65.85735525099751  15.719053157861442  17.54035569939168  28.20934646511979  68.64538299065593  -9.719415359878901  10.489898649500065  120.000000
8.163400000000001  0.000000  0.000000  0.000000  -31.34922809699898  12.442969515914042  2.7009368468784416  65.70606397670419  17.617267236339906  17.382024582531304  28.037486361036905  70.43603267445407  -9.89250007867404  10.455847540655714  120.000000
8.21142  0.000000  0.000000  0.000000  -31.575390548412155  11.56969938092598  0.7464391937049752  65.32179436886332  19.521762057098595  17.261976865572912  28.24387664345034  71.96430632774911  -10.194570817083777  10.404663824217439  120.000000
8.259440000000001  0.000000  0.000000  0.000000  -31.812777645119063  10.792859583477364  -1.1347856682679973  64.79796042677754  21.35321057338311  17.187440954814626  28.72038383725097  73.16089933420191  -10.55496109331914  10.351445841963322  120.000000
